<?xml version="1.0" encoding="UTF-8" standalone="no"?>
<!-- Created with Inkscape (http://www.inkscape.org/) -->

<svg
   width="93.780823mm"
   height="90.406128mm"
   viewBox="0 0 93.780823 90.406128"
   version="1.1"
   id="svg1"
   xml:space="preserve"
   inkscape:version="1.3 (0e150ed6c4, 2023-07-21)"
   sodipodi:docname="scot-icon.svg"
   xmlns:inkscape="http://www.inkscape.org/namespaces/inkscape"
   xmlns:sodipodi="http://sodipodi.sourceforge.net/DTD/sodipodi-0.dtd"
   xmlns="http://www.w3.org/2000/svg"
   xmlns:svg="http://www.w3.org/2000/svg"><sodipodi:namedview
     id="namedview1"
     pagecolor="#ffffff"
     bordercolor="#000000"
     borderopacity="0.25"
     inkscape:showpageshadow="2"
     inkscape:pageopacity="0.0"
     inkscape:pagecheckerboard="0"
     inkscape:deskcolor="#d1d1d1"
     inkscape:document-units="mm"
     inkscape:zoom="0.36213174"
     inkscape:cx="255.43191"
     inkscape:cy="67.654938"
     inkscape:window-width="1920"
     inkscape:window-height="1009"
     inkscape:window-x="3832"
     inkscape:window-y="-8"
     inkscape:window-maximized="1"
     inkscape:current-layer="layer2"
     showgrid="false" /><defs
     id="defs1"><rect
       x="-179.49269"
       y="115.97989"
       width="180.18304"
       height="57.989948"
       id="rect1" /></defs><g
     inkscape:groupmode="layer"
     id="layer2"
     inkscape:label="Layer 2"
     style="display:inline"
     transform="translate(-51.169823,-98.735141)"><path
       style="display:none;opacity:1;fill:none;stroke:#000000;stroke-width:0.765;stroke-linecap:round;stroke-linejoin:round;stroke-dasharray:none;stroke-opacity:1"
       d="m 32.806102,85.244201 c -15.80128,60.027729 25.485696,83.145189 54.246309,82.661039 38.973189,-2.09154 55.901449,-23.61962 58.379359,-38.74736 4.84254,-17.45233 -0.16876,-33.426577 -9.04105,-48.821679"
       id="path20"
       sodipodi:nodetypes="cccc" /><g
       id="g1"><g
         id="g23"
         transform="translate(3.0567737,-5.0257511)"><path
           style="display:inline;fill:#000000;fill-opacity:1;stroke:#000000;stroke-width:0.774231;stroke-linecap:round;stroke-linejoin:round;stroke-dasharray:none;stroke-opacity:1"
           d="m 115.16513,112.03713 c 0.33648,1.8985 0.8663,5.08638 3.28782,4.95456 2.69434,0.0114 5.99698,-4.90749 3.51615,-9.13284"
           id="path21"
           sodipodi:nodetypes="ccc" /><path
           style="display:inline;fill:#000000;fill-opacity:1;stroke:#000000;stroke-width:2.11667;stroke-linecap:round;stroke-linejoin:round;stroke-dasharray:none;stroke-opacity:1"
           d="m 102.16388,145.49635 c 0.0662,-5.69393 -1.74427,-10.25314 -9.041048,-11.49505 12.200108,-2.94125 17.245528,-1.81174 19.502838,0.90411 -5.47295,0.17946 -7.58322,6.03345 -10.46179,10.59094 z"
           id="path12"
           sodipodi:nodetypes="cccc" /><path
           style="display:inline;fill:#000000;fill-opacity:1;stroke:#000000;stroke-width:0.774231;stroke-linecap:round;stroke-linejoin:round;stroke-dasharray:none;stroke-opacity:1"
           d="m 74.265781,104.94078 c -5.454628,6.53363 -1.614293,9.95301 0.452051,10.46178 1.935321,0.35787 7.749122,-1.36753 6.909949,-8.45984"
           id="path17"
           sodipodi:nodetypes="ccc" /><path
           style="fill:none;stroke:#000000;stroke-width:2.11667;stroke-linecap:round;stroke-linejoin:round;stroke-dasharray:none;stroke-opacity:1"
           d="m 62.383255,144.26935 c 0.696109,4.55768 8.536984,8.77925 13.303262,9.94516 7.857294,1.71266 18.189769,1.85977 26.348213,-8.52443 -1.23291,5.8944 3.82825,8.40555 6.45789,9.55769 7.93203,1.88668 15.49863,-3.27211 17.43631,-6.97453 1.30346,-4.67522 -0.1409,-6.97491 -2.19568,-9.29936"
           id="path5"
           sodipodi:nodetypes="cccccc" /><path
           style="fill:none;stroke:#000000;stroke-width:1.32292;stroke-linecap:round;stroke-linejoin:round;stroke-dasharray:none;stroke-opacity:1"
           d="m 113.65893,142.5903 c 9.22393,1.53412 16.83374,4.43242 20.62943,10.55422"
           id="path6"
           sodipodi:nodetypes="cc" /><path
           style="fill:none;stroke:#000000;stroke-width:1.32292;stroke-linecap:round;stroke-linejoin:round;stroke-dasharray:none;stroke-opacity:1"
           d="m 118.82525,139.23219 c 5.18567,0.40529 9.24546,1.70209 12.8024,3.39705"
           id="path7"
           sodipodi:nodetypes="cc" /><path
           style="fill:none;stroke:#000000;stroke-width:1.32292;stroke-linecap:round;stroke-linejoin:round;stroke-dasharray:none;stroke-opacity:1"
           d="m 112.36735,146.98167 c 6.50174,1.76123 9.76777,5.76788 12.38052,10.22786"
           id="path8"
           sodipodi:nodetypes="cc" /><path
           style="fill:none;stroke:#000000;stroke-width:1.32292;stroke-linecap:round;stroke-linejoin:round;stroke-dasharray:none;stroke-opacity:1"
           d="m 80.884874,139.97481 c -4.141522,1.20683 -7.585088,2.94528 -10.648968,4.97294 -5.786609,3.82955 -10.218871,8.6907 -15.440923,12.95027"
           id="path9"
           sodipodi:nodetypes="csc" /><path
           style="fill:none;stroke:#000000;stroke-width:1.32292;stroke-linecap:round;stroke-linejoin:round;stroke-dasharray:none;stroke-opacity:1"
           d="M 78.269046,136.90801 C 66.566479,138.119 59.168943,143.54304 51.14589,148.35492"
           id="path10"
           sodipodi:nodetypes="cc" /><path
           style="fill:none;stroke:#000000;stroke-width:1.32292;stroke-linecap:round;stroke-linejoin:round;stroke-dasharray:none;stroke-opacity:1"
           d="m 82.661041,143.10693 c -5.357208,6.95147 -6.270348,12.44898 -6.413652,17.69463"
           id="path11"
           sodipodi:nodetypes="cc" /><path
           style="fill:none;stroke:#000000;stroke-width:2.11667;stroke-linecap:round;stroke-linejoin:round;stroke-dasharray:none;stroke-opacity:1"
           d="m 52.39117,110.88568 c 10.275879,-5.43242 35.580717,-14.512292 37.881819,11.4409"
           id="path13"
           sodipodi:nodetypes="cc" /><path
           style="fill:none;stroke:#000000;stroke-width:2.11667;stroke-linecap:round;stroke-linejoin:round;stroke-dasharray:none;stroke-opacity:1"
           d="M 120.37085,131.69557 C 105.17187,120.8406 112.52474,105.80193 130.41697,107.0369"
           id="path14"
           sodipodi:nodetypes="cc" /><path
           style="fill:none;stroke:#000000;stroke-width:1.32292;stroke-linecap:round;stroke-linejoin:round;stroke-dasharray:none;stroke-opacity:1"
           d="m 87.827357,116.88788 c -1.273368,-3.07821 -2.914841,-1.37105 -4.520525,-0.12916 -9.628047,6.14814 -17.435444,-2.05868 -16.919681,-9.55768"
           id="path15"
           sodipodi:nodetypes="ccc" /><path
           style="fill:none;stroke:#000000;stroke-width:1.32292;stroke-linecap:round;stroke-linejoin:round;stroke-dasharray:none;stroke-opacity:1"
           d="m 115.53044,119.64022 c 4.94967,0.9458 12.89373,0.97343 13.05996,-9.86347 -1.46236,-0.93276 -1.57559,-1.74286 -1.73523,-2.55719"
           id="path16"
           sodipodi:nodetypes="ccc" /><ellipse
           style="fill:#000000;fill-opacity:1;stroke:#000000;stroke-width:0.911774;stroke-linecap:round;stroke-linejoin:round;stroke-dasharray:none;stroke-opacity:1"
           id="path22"
           cx="99.074051"
           cy="86.664238"
           rx="3.4193115"
           ry="0.9007327"
           transform="rotate(12.703108)" /><ellipse
           style="display:inline;fill:#000000;fill-opacity:1;stroke:#000000;stroke-width:0.911774;stroke-linecap:round;stroke-linejoin:round;stroke-dasharray:none;stroke-opacity:1"
           id="path22-0"
           cx="44.058388"
           cy="156.23795"
           rx="3.4193115"
           ry="0.9007327"
           transform="rotate(-31.22404)" /><path
           style="opacity:1;fill:none;fill-opacity:1;stroke:#000000;stroke-width:1.32292;stroke-linecap:round;stroke-linejoin:round;stroke-dasharray:none;stroke-opacity:1"
           d="m 93.729678,153.5817 c 1.699848,1.89104 4.726153,2.80721 10.580192,0.5323"
           id="path23"
           sodipodi:nodetypes="cc" /></g><text
         xml:space="preserve"
         transform="matrix(2.6858971,0,0,2.7687831,532.71655,-162.81031)"
         id="text1"
         style="font-style:normal;font-variant:normal;font-weight:normal;font-stretch:normal;font-size:12px;font-family:'Segoe Script';-inkscape-font-specification:'Segoe Script, Normal';font-variant-ligatures:normal;font-variant-caps:normal;font-variant-numeric:normal;font-variant-east-asian:normal;white-space:pre;shape-inside:url(#rect1);fill:#000000;fill-opacity:1;stroke:none;stroke-width:0.639187;stroke-linecap:round;stroke-linejoin:round;stroke-dasharray:none;stroke-opacity:1"><tspan
           x="-179.49219"
           y="126.54582"
           id="tspan2">SCOT</tspan></text></g></g></svg>
